<svg xmlns="http://www.w3.org/2000/svg" viewBox="0 0 128 128">
  <!-- The icon of .cssv files up to 32 px, where cssv-file.svg's label can't
       be read: the page with a bigger mark, underlined in highlighter yellow. -->
  <path d="M28 8H82L106 32V114Q106 120 100 120H28Q22 120 22 114V14Q22 8 28 8Z" fill="#fffdf9" stroke="#1c1a17" stroke-width="4" stroke-linejoin="round"/>
  <path d="M82 8V27Q82 32 87 32H106Z" fill="#e3ded3" stroke="#1c1a17" stroke-width="4" stroke-linejoin="round"/>
  <g transform="translate(64 76) scale(2.15) translate(-16 -16)">
    <path d="M5.6 17.4L26.2 16.6L26.6 24.2L5.8 25.2Z" fill="#ffe45c"/>
    <g fill="none" stroke="#1c1a17" stroke-width="2.6" stroke-linecap="round" stroke-linejoin="round">
      <path d="M12.8 7.5C10.5 7.5 9.5 8.5 9.5 10.5V13.5C9.5 15.2 8.6 16 6.9 16C8.6 16 9.5 16.8 9.5 18.5V21.5C9.5 23.5 10.5 24.5 12.8 24.5"/>
      <path d="M19.2 7.5C21.5 7.5 22.5 8.5 22.5 10.5V13.5C22.5 15.2 23.4 16 25.1 16C23.4 16 22.5 16.8 22.5 18.5V21.5C22.5 23.5 21.5 24.5 19.2 24.5"/>
    </g>
    <path fill="#1c1a17" transform="translate(16 19) scale(1.2) translate(-16 -19)" d="M16 15.6a2.25 2.25 0 0 1 2.25 2.25c0 2.5-1.25 4.4-3.3 5.35l-.75-1.15c1.05-.6 1.7-1.35 1.9-2.25A2.25 2.25 0 1 1 16 15.6z"/>
  </g>
</svg>
